<svg width="24" height="24" viewBox="0 0 24 24" fill="none" xmlns="http://www.w3.org/2000/svg">
<path d="M4.13311 5.60001L9.98911 12.5L10.0001 17L14.0001 20L14.0111 12.5L19.8671 5.60001C19.9787 5.45117 20.0466 5.27413 20.0632 5.08882C20.0797 4.9035 20.0442 4.71724 19.9606 4.551C19.8771 4.38476 19.7489 4.24511 19.5903 4.14777C19.4317 4.05044 19.2492 3.99926 19.0631 4.00001H4.93711C4.75106 3.99926 4.56849 4.05044 4.40993 4.14777C4.25137 4.24511 4.12311 4.38476 4.03957 4.551C3.95604 4.71724 3.92053 4.9035 3.93706 5.08882C3.95358 5.27413 4.02148 5.45117 4.13311 5.60001Z" stroke="#2F2F38" stroke-width="2" stroke-linecap="round" stroke-linejoin="round"/>
</svg>
